<svg xmlns:xlink="http://www.w3.org/1999/xlink" xmlns="http://www.w3.org/2000/svg" class="svg-icon" width="32"  height="32" ><defs><symbol id="icon-video" viewBox="0 0 32 32">
        <path d="M6.25 16.25c0.691 0 1.25 0.56 1.25 1.25s-0.56 1.25-1.25 1.25v0c-0.691 0-1.25-0.56-1.25-1.25s0.56-1.25 1.25-1.25v0zM29.501 19.813v-3.349l-5.042 3.042c-0.185 0.114-0.408 0.181-0.648 0.181-0.689 0-1.248-0.559-1.248-1.248 0-0.001 0-0.003 0-0.004v0-2.187c0-1.378-1.122-2.499-2.501-2.499h-15.062c-1.379 0-2.499 1.12-2.499 2.499v10.75c0 1.378 1.12 2.499 2.499 2.499h15.062c1.379 0 2.501-1.12 2.501-2.499v-2.25c0.001-0.69 0.561-1.249 1.251-1.249 0.235 0 0.455 0.065 0.642 0.177l-0.006-0.003 5.048 3.003v-0.616c0-0.691 0.56-1.25 1.25-1.25s1.25 0.56 1.25 1.25v2.813c-0.001 0.69-0.561 1.249-1.251 1.249-0.235 0-0.455-0.065-0.642-0.177l0.006 0.003-5.050-3.003v0.053c-0.002 2.76-2.238 4.998-4.998 5.002h-15.064c-2.76-0.003-4.997-2.24-5-5v-10.751c0-1.6 0.755-3.024 1.928-3.941-1.185-1.051-1.928-2.577-1.928-4.277 0-0 0-0 0-0v0c0.003-3.157 2.561-5.716 5.718-5.72h0c2.737 0.003 5.023 1.924 5.588 4.492l0.007 0.038c0.024-3.78 3.091-6.836 6.873-6.842h0.001c3.795 0.005 6.871 3.080 6.875 6.875v0c0 0.001 0 0.001 0 0.002 0 2.048-0.897 3.887-2.321 5.144l-0.007 0.006c1.392 0.882 2.318 2.432 2.328 4.197l5.042-3.045c0.184-0.112 0.407-0.179 0.645-0.179 0.691 0 1.251 0.56 1.251 1.251v0 5.562c0 0.691-0.56 1.25-1.25 1.25s-1.25-0.56-1.25-1.25v0zM8.938 8.032c0-1.776-1.445-3.219-3.219-3.219-1.776 0-3.218 1.443-3.218 3.219 0 1.774 1.443 3.218 3.218 3.218 1.776 0 3.219-1.443 3.219-3.218zM12.89 11.25c-0.709-0.851-1.22-1.892-1.447-3.035l-0.007-0.044c-0.028 1.153-0.395 2.216-1.004 3.097l0.012-0.019zM22.563 6.875c-0.002-2.416-1.96-4.374-4.376-4.376h-0c-2.415 0.003-4.373 1.96-4.374 4.376v0c0.004 2.414 1.96 4.371 4.374 4.374h0c2.415-0.003 4.372-1.959 4.376-4.374v-0z"></path>
    </symbol></defs><use xlink:href="#icon-video" fill="#FFFFFF"></use></svg>