<svg xmlns:xlink="http://www.w3.org/1999/xlink" xmlns="http://www.w3.org/2000/svg" class="svg-icon" width="32"  height="32" ><defs><symbol id="icon-like" viewBox="0 0 32 32">
        <path d="M3.751 11.742h1.875c0.408 0 0.8 0.064 1.168 0.187l6.168-9.611 0.805-1.131 0.069-0.069c0.681-0.686 1.624-1.111 2.666-1.111 2.074 0 3.755 1.681 3.755 3.755 0 0.429-0.072 0.841-0.204 1.225l0.008-0.026-0.027 0.075-0.035 0.072c-0.195 0.4-0.405 0.816-0.627 1.259-0.56 1.117-1.485 2.957-1.627 3.509 0.093 0.656 0.968 1.053 1.592 1.053h8.224c1.966 0.006 3.558 1.601 3.558 3.568 0 0.668-0.183 1.293-0.503 1.827l0.009-0.016c0.845 0.659 1.373 1.683 1.373 2.811-0 1.164-0.551 2.199-1.405 2.86l-0.008 0.006c0.298 0.507 0.474 1.116 0.474 1.767 0 1.351-0.759 2.525-1.873 3.12l-0.019 0.009c0.213 0.451 0.333 0.944 0.333 1.451 0 2.123-1.504 3.661-3.576 3.661h-12.24c-0.665-0.032-1.193-0.579-1.193-1.249s0.527-1.218 1.19-1.249l0.003-0h12.24c0.971 0 1.075-0.813 1.075-1.163 0-0.515-0.435-0.795-0.568-0.869-0.701-0.387-0.808-0.941-0.808-1.24 0-0.795 0.688-1.416 1.563-1.416h0.283c0.003 0 0.007 0 0.011 0 0.59 0 1.070-0.475 1.077-1.063v-0.001c-0.005-0.414-0.246-0.771-0.594-0.944l-0.006-0.003c-0.552-0.301-0.832-0.728-0.832-1.277 0-0.469 0.315-1.285 1.493-1.349 0.48-0.027 0.88-0.507 0.88-1.051-0.005-0.494-0.342-0.908-0.798-1.030l-0.008-0.002c-0.752-0.187-1.253-0.779-1.253-1.467 0-0.344 0.123-0.837 0.723-1.253 0.276-0.195 0.454-0.513 0.454-0.872 0-0.584-0.471-1.059-1.054-1.064h-8.222c-1.904 0-4.011-1.352-4.093-3.539v-0.048c0-0.749 0.547-1.92 1.893-4.6 0.205-0.405 0.4-0.792 0.579-1.157 0.032-0.105 0.051-0.226 0.051-0.352 0-0.689-0.559-1.248-1.248-1.248-0.324 0-0.619 0.123-0.841 0.326l0.001-0.001-0.629 0.885-6.277 9.763c0.376 0.573 0.6 1.275 0.6 2.030 0 0.001 0 0.002 0 0.002v-0 12.747c0 2.069-1.683 3.752-3.752 3.752h-1.875c-2.064 0.003-3.747-1.677-3.747-3.747v-12.749c0-2.069 1.68-3.752 3.749-3.752zM2.503 28.243c0 0.688 0.56 1.251 1.248 1.251h1.875c0.692 0 1.253-0.561 1.253-1.253v-12.747c0-0.692-0.561-1.253-1.253-1.253h-1.875c-0.69 0.003-1.248 0.563-1.248 1.253 0 0 0 0 0 0v0z"></path>
    </symbol></defs><use xlink:href="#icon-like" fill="#F00EFF"></use></svg>