<svg xmlns:xlink="http://www.w3.org/1999/xlink" xmlns="http://www.w3.org/2000/svg" class="svg-icon" width="37"  height="32" ><defs><symbol id="icon-photo" viewBox="0 0 37 32">
        <path d="M36.806 26.181c0 3.211-2.579 5.819-5.75 5.819h-25.299c-3.171 0-5.75-2.61-5.75-5.819v-20.363c0-3.208 2.579-5.818 5.75-5.818h25.299c3.171 0 5.75 2.608 5.75 5.818v13.138c-0.014 0.407-0.191 0.769-0.468 1.026l-0.001 0.001-0.003 0.003-0.003 0.005c-0.064 0.059-0.136 0.113-0.211 0.16l-0.006 0.004-0.011 0.006-0.003 0.003c-0.052 0.031-0.114 0.063-0.178 0.089l-0.010 0.004-0.016 0.006c-0.006 0.002-0.012 0.004-0.017 0.007l-0.001-0-0.013 0.006h-0.005c-0.003 0.002-0.007 0.003-0.011 0.005l-0.001 0-0.005 0.003c-0.004 0.001-0.008 0.002-0.011 0.003l0-0-0.006 0.002-0.010 0.003-0.006 0.002c-0.003 0.003-0.008 0.003-0.011 0.005l-0.006 0.002-0.010 0.003-0.006 0.002-0.010 0.003-0.008 0.002-0.010 0.003c-0.003 0-0.006 0.001-0.008 0.002l0-0-0.008 0.002-0.008 0.003c-0.004 0.001-0.007 0.002-0.010 0.003l0-0h-0.008l-0.010 0.003-0.008 0.002-0.010 0.002-0.006 0.003-0.013 0.002-0.005 0.002-0.013 0.002-0.005 0.002c-0.082 0.017-0.177 0.026-0.274 0.026-0.012 0-0.023-0-0.035-0l0.002 0h-0.013c-0.402-0.015-0.76-0.193-1.010-0.471l-0.001-0.001-0.006-0.006c-0.016-0.016-0.029-0.034-0.043-0.051l-7.048-8.509-10.432 13.427 3.304 4.339h10.973c1.59-0.012 2.875-1.304 2.875-2.896 0-0.005 0-0.010-0-0.015v0.001c0-0.802 0.643-1.453 1.437-1.453 0.795 0 1.438 0.651 1.438 1.453zM16.454 29.091l-6.384-8.379-2.026 2.664c-0.263 0.346-0.675 0.567-1.139 0.567-0.332 0-0.638-0.113-0.88-0.304l0.003 0.002c-0.343-0.271-0.561-0.687-0.561-1.154 0-0.335 0.112-0.643 0.301-0.89l-0.003 0.004 3.163-4.16c0.264-0.345 0.676-0.565 1.139-0.565s0.874 0.22 1.135 0.56l0.002 0.003 3.76 4.933 11.077-14.256c0.264-0.338 0.672-0.554 1.13-0.554 0.442 0 0.838 0.201 1.1 0.516l0.002 0.002 5.654 6.826v-9.090c0-0.004 0-0.008 0-0.013 0-1.592-1.285-2.884-2.874-2.896h-25.299c-1.59 0.012-2.875 1.304-2.875 2.896 0 0.005 0 0.009 0 0.014v-0.001 20.363c-0 0.004-0 0.009-0 0.014 0 1.592 1.285 2.884 2.874 2.896h0.001zM14.379 9.6c0 2.406-1.934 4.363-4.312 4.363s-4.312-1.957-4.312-4.363c0-2.406 1.934-4.363 4.312-4.363s4.312 1.957 4.312 4.363zM11.505 9.6c0-0.002 0-0.004 0-0.006 0-0.796-0.642-1.442-1.436-1.448h-0.001c-0.795 0.006-1.437 0.652-1.437 1.448 0 0.002 0 0.005 0 0.007v-0c0 0.803 0.645 1.456 1.437 1.456 0.795-0.006 1.437-0.652 1.437-1.448 0-0.003 0-0.006-0-0.008v0z"></path>
    </symbol></defs><use xlink:href="#icon-photo" fill="#FFFFFF"></use></svg>